<?xml version="1.0" encoding="UTF-8"?> <svg xmlns="http://www.w3.org/2000/svg" width="48" height="48" viewBox="0 0 48 48" fill="none"><g clip-path="url(#clip0_39605_49214)"><path d="M11.2313 22.1756C12.6313 21.8574 13.294 21.099 13.6122 20.4838L20.963 23.422C20.9602 23.4296 20.7534 23.9938 20.3636 24.647C19.8333 25.5273 18.9635 26.5668 17.781 26.604C17.7804 26.6224 17.7098 28.538 15.3648 29.1956L15.1293 29.2556L15.0692 29.4911C14.4116 31.8361 12.4961 31.9067 12.4777 31.9073C12.4405 33.0898 11.401 33.9596 10.5207 34.4899C9.86753 34.8797 9.30327 35.0865 9.2957 35.0893L6.35747 27.7385C6.97265 27.4203 7.73109 26.7576 8.04928 25.3576C8.04928 25.3576 9.51291 25.315 10.2818 24.4509L10.3246 24.4081C11.1887 23.6392 11.2313 22.1756 11.2313 22.1756Z" fill="#475137"></path><path d="M17.7803 26.6033C18.9629 26.5662 19.8325 25.5267 20.3629 24.6463L27.512 27.8497C27.5095 27.8639 26.8801 31.4667 23.7997 31.562C23.7992 31.576 23.7032 34.459 20.898 34.7261L20.6177 34.744L20.5997 35.0244C20.3327 37.8295 17.4496 37.9255 17.4357 37.926C17.3404 41.0064 13.7375 41.6358 13.7234 41.6383L10.52 34.4892C11.4003 33.9589 12.4398 33.0892 12.477 31.9066C12.477 31.9066 14.5347 31.843 15.1286 29.255C17.7166 28.661 17.7803 26.6033 17.7803 26.6033Z" fill="#536043"></path><path d="M2.71766 16.844C2.90126 16.6617 3.17358 16.5671 3.451 16.6437L13.8822 19.5233C13.8822 19.5233 13.8721 19.9588 13.6122 20.4838C13.294 21.0989 12.6305 21.8568 11.2306 22.1749C11.2306 22.1749 11.1881 23.6384 10.3239 24.4074L10.2811 24.4502C9.51205 25.3145 8.04858 25.3569 8.04858 25.3569C7.73042 26.7568 6.9726 27.4203 6.35746 27.7385C5.83243 27.9984 5.39693 28.0085 5.39693 28.0085L2.5174 17.5773C2.44078 17.2999 2.53533 17.0276 2.71766 16.844Z" fill="#536043"></path><path d="M15.1286 29.255C16.1312 29.0249 16.7529 28.5734 17.1408 28.1087C20.4919 28.8653 23.9567 28.9889 27.3449 28.4781C27.0064 29.5185 26.0684 31.4918 23.7997 31.562C23.7992 31.576 23.7032 34.459 20.898 34.7261L20.6177 34.744L20.5997 35.0244C20.3327 37.8295 17.4496 37.9255 17.4357 37.926C17.3404 41.0064 13.7375 41.6358 13.7234 41.6383L10.52 34.4892C11.4003 33.9589 12.4398 33.0892 12.477 31.9066C12.477 31.9066 14.5347 31.843 15.1286 29.255Z" fill="#475137"></path><path d="M3.23279 20.1724C3.4114 20.3612 3.59333 20.5481 3.77831 20.7331C5.49462 22.4494 7.38208 23.8902 9.38476 25.0579C8.71483 25.3363 8.04857 25.3569 8.04857 25.3569C7.73042 26.7568 6.9726 27.4203 6.35746 27.7385C5.83243 27.9984 5.39692 28.0085 5.39692 28.0085L3.23279 20.1724Z" fill="#475137"></path><path d="M8.04928 25.3576C8.04928 25.3576 8.71574 25.3369 9.38546 25.0586C11.8315 26.4847 14.4502 27.5016 17.1429 28.1094C16.7863 28.5368 16.2314 28.9525 15.3648 29.1956L15.1293 29.2556L15.0692 29.4911C14.4116 31.8361 12.4961 31.9067 12.4777 31.9073C12.4405 33.0898 11.401 33.9596 10.5207 34.4899C9.86753 34.8797 9.30327 35.0865 9.2957 35.0893L6.35747 27.7385C6.97265 27.4203 7.73109 26.7576 8.04928 25.3576Z" fill="#3C442D"></path><path fill-rule="evenodd" clip-rule="evenodd" d="M35.3975 20C36.8324 20.0001 38.1111 20.8745 38.6416 22.1875L38.7383 22.4561L40.8596 29.2447C41.0217 29.7635 41.388 30.194 41.8741 30.4371L43.2109 31.1055C44.3073 31.6536 45 32.7743 45 34H4V32C4 30.8954 4.89543 30 6 30H29V23C29 21.3431 30.3431 20 32 20H35.3975ZM32 22C31.4477 22 31 22.4477 31 23V29C31 29.5523 31.4477 30 32 30H39L36.8291 23.0527C36.6298 22.4151 36.0482 22.026 35.3975 22H32Z" fill="#138670"></path><path d="M4 34H45V40C45 40.5523 44.5523 41 44 41H5C4.44771 41 4 40.5523 4 40V34Z" fill="#117965"></path><path d="M35.3975 22C36.0482 22.026 36.6298 22.4151 36.8291 23.0527L37.125 24H37.1201C36.9367 23.4131 36.4242 23.0542 35.8193 23.0049L33 23C32.4477 23 32 23.4477 32 24V30C31.4477 30 31 29.5523 31 29V23C31 22.4477 31.4477 22 32 22H35.3975Z" fill="#0D5E4E"></path><path d="M12.5 36C15.3233 36 17.2388 38.244 17.5 41H7.5C7.76115 38.244 9.6767 36 12.5 36Z" fill="#0D5E4E"></path><path d="M36.5 36C39.3233 36 41.2388 38.244 41.5 41H31.5C31.7611 38.244 33.6767 36 36.5 36Z" fill="#0D5E4E"></path><path d="M12.5 40C13.3284 40 14 40.6716 14 41.5C14 42.3284 13.3284 43 12.5 43C11.6716 43 11 42.3284 11 41.5C11 40.6716 11.6716 40 12.5 40Z" fill="#F1F2F2"></path><path d="M36.5 40C37.3284 40 38 40.6716 38 41.5C38 42.3284 37.3284 43 36.5 43C35.6716 43 35 42.3284 35 41.5C35 40.6716 35.6716 40 36.5 40Z" fill="#F1F2F2"></path><path fill-rule="evenodd" clip-rule="evenodd" d="M12.5 37C14.7649 37 16.6472 38.6799 16.9473 40.8623C16.9848 41.0723 17 41.2825 17 41.5C17 43.9825 14.9825 46 12.5 46C10.0175 46 8 43.9825 8 41.5C8 41.2825 8.01523 41.0723 8.05273 40.8623C8.35283 38.6799 10.2351 37 12.5 37ZM12.5 40C11.675 40 11 40.675 11 41.5C11 42.325 11.675 43 12.5 43C13.325 43 14 42.325 14 41.5C14 40.675 13.325 40 12.5 40Z" fill="#666666"></path><path fill-rule="evenodd" clip-rule="evenodd" d="M36.5 37C38.7649 37 40.6472 38.6799 40.9473 40.8623C40.9848 41.0723 41 41.2825 41 41.5C41 43.9825 38.9825 46 36.5 46C34.0175 46 32 43.9825 32 41.5C32 41.2825 32.0152 41.0723 32.0527 40.8623C32.3528 38.6799 34.2351 37 36.5 37ZM36.5 40C35.675 40 35 40.675 35 41.5C35 42.325 35.675 43 36.5 43C37.325 43 38 42.325 38 41.5C38 40.675 37.325 40 36.5 40Z" fill="#666666"></path><path d="M14.832 37.6445C15.957 38.3345 16.7598 39.5048 16.9473 40.8623C16.9847 41.0722 17 41.2826 17 41.5C16.9997 43.9823 14.9823 46 12.5 46C10.8726 46 9.4477 45.1372 8.66016 43.8398C9.34259 44.2597 10.1376 44.5 11 44.5C13.4823 44.5 15.4997 42.4823 15.5 40C15.5 39.7826 15.4847 39.5722 15.4473 39.3623C15.3648 38.7398 15.147 38.1545 14.832 37.6445Z" fill="#4D4D4D"></path><path d="M38.832 37.6445C39.957 38.3345 40.7598 39.5048 40.9473 40.8623C40.9847 41.0722 41 41.2826 41 41.5C40.9997 43.9823 38.9823 46 36.5 46C34.8726 46 33.4477 45.1372 32.6602 43.8398C33.3426 44.2597 34.1376 44.5 35 44.5C37.4823 44.5 39.4997 42.4823 39.5 40C39.5 39.7826 39.4847 39.5722 39.4473 39.3623C39.3648 38.7398 39.147 38.1545 38.832 37.6445Z" fill="#4D4D4D"></path><path d="M42 40C42 39.4477 42.4477 39 43 39H45C45.5523 39 46 39.4477 46 40V41C46 41.5523 45.5523 42 45 42H43C42.4477 42 42 41.5523 42 41V40Z" fill="#0B4035"></path><path d="M3 40C3 39.4477 3.44772 39 4 39H6C6.55228 39 7 39.4477 7 40V41C7 41.5523 6.55228 42 6 42H4C3.44772 42 3 41.5523 3 41V40Z" fill="#0B4035"></path><path d="M4 32H5C5.55228 32 6 32.4477 6 33V34C6 34.5523 5.55228 35 5 35H4V32Z" fill="#BE4A4A"></path><path d="M44.3057 32C44.7465 32.5603 45 33.2605 45 34V35H44.25C43.0074 35 42 33.9926 42 32.75C42 32.3358 42.3358 32 42.75 32H44.3057Z" fill="#D9AC80"></path><path d="M42.5 8.75C43.3284 8.75 44 8.07843 44 7.25C44 6.42157 43.3284 5.75 42.5 5.75C41.6716 5.75 41 6.42157 41 7.25C41 8.07843 41.6716 8.75 42.5 8.75Z" fill="#DEE2E0"></path><path d="M29.5 17C30.3284 17 31 16.3284 31 15.5C31 14.6716 30.3284 14 29.5 14C28.6716 14 28 14.6716 28 15.5C28 16.3284 28.6716 17 29.5 17Z" fill="#DEE2E0"></path><path d="M21.5 7C22.3284 7 23 6.32843 23 5.5C23 4.67157 22.3284 4 21.5 4C20.6716 4 20 4.67157 20 5.5C20 6.32843 20.6716 7 21.5 7Z" fill="#DEE2E0"></path><path d="M5.75 13C6.57843 13 7.25 12.3284 7.25 11.5C7.25 10.6716 6.57843 10 5.75 10C4.92157 10 4.25 10.6716 4.25 11.5C4.25 12.3284 4.92157 13 5.75 13Z" fill="#DEE2E0"></path><path d="M17.5 21C18.3284 21 19 20.3284 19 19.5C19 18.6716 18.3284 18 17.5 18C16.6716 18 16 18.6716 16 19.5C16 20.3284 16.6716 21 17.5 21Z" fill="#DEE2E0"></path></g><defs><clipPath id="clip0_39605_49214"><rect width="48" height="48" fill="white"></rect></clipPath></defs></svg> 