<?xml version="1.0" encoding="UTF-8"?> <svg xmlns="http://www.w3.org/2000/svg" width="32" height="32" viewBox="0 0 32 32" fill="none"><g clip-path="url(#clip0_133_2)"><mask id="mask0_133_2" style="mask-type:luminance" maskUnits="userSpaceOnUse" x="0" y="0" width="32" height="32"><path d="M32 0H0V32H32V0Z" fill="white"></path></mask><g mask="url(#mask0_133_2)"><path d="M19.4289 24.1428H25.1432C25.6955 24.1428 26.1432 24.5905 26.1432 25.1428C26.1432 25.6951 25.6955 26.1428 25.1432 26.1428H19.4289C18.8766 26.1428 18.4289 25.6951 18.4289 25.1428C18.4289 24.5905 18.8766 24.1428 19.4289 24.1428Z" fill="#FAFAFA" fill-opacity="0.8"></path><path d="M16.0002 0.142829L23.4516 0.142836C24.4881 0.143386 25.5047 0.433074 26.3856 0.979329C27.2659 1.52521 27.9766 2.30566 28.4378 3.23305L28.4388 3.23498L31.7426 9.81972C31.7809 9.89238 31.8106 9.97034 31.8301 10.0522C31.8504 10.1363 31.8593 10.2214 31.8576 10.3057V28.5714C31.8576 29.4428 31.5114 30.2786 30.8952 30.8948C30.279 31.511 29.4433 31.8571 28.5718 31.8571H3.42899C2.55756 31.8571 1.72183 31.511 1.10564 30.8948C0.489446 30.2786 0.143273 29.4428 0.143273 28.5714V10.3052C0.141513 10.2188 0.15096 10.1315 0.172302 10.0455C0.192959 9.96175 0.224178 9.88212 0.264466 9.80814L3.68035 3.22688C4.1309 2.32317 4.81863 1.55884 5.67005 1.0157C6.51534 0.476454 7.54481 0.1392 8.55314 0.142836L16.0002 0.142829ZM15.0002 2.14284H8.56263C7.91768 2.16159 7.28977 2.35473 6.74568 2.70182C6.1982 3.05107 5.75631 3.54299 5.46754 4.12465L2.78897 9.28572H15.0002V2.14284ZM17.0002 2.14284V9.28572H29.237L26.6477 4.12498C26.3521 3.52996 25.8963 3.02922 25.3316 2.67905C24.767 2.32893 24.1159 2.14323 23.4515 2.14284H17.0002ZM2.14327 11.2857V28.5714C2.14327 28.9124 2.27873 29.2394 2.51985 29.4806C2.76097 29.7217 3.088 29.8571 3.42899 29.8571H28.5718C28.9128 29.8571 29.2399 29.7217 29.481 29.4806C29.7221 29.2394 29.8576 28.9124 29.8576 28.5714V11.2857H2.14327Z" fill="#FAFAFA" fill-opacity="0.8"></path></g></g><defs><clipPath id="clip0_133_2"><rect width="32" height="32" fill="white"></rect></clipPath></defs></svg> 