<?xml version="1.0" encoding="UTF-8"?> <svg xmlns="http://www.w3.org/2000/svg" width="32" height="32" viewBox="0 0 32 32" fill="none"><path d="M17 1.14282V9.35968C20.2339 9.8426 22.7142 12.6316 22.7142 16C22.7142 19.7082 19.7081 22.7143 15.9999 22.7143C12.2917 22.7143 9.28564 19.7082 9.28564 16C9.28564 12.6316 11.7661 9.84252 15 9.35966V1.14282C15 0.590537 15.4477 0.142822 16 0.142822C16.5523 0.142822 17 0.590537 17 1.14282ZM11.2856 16C11.2856 18.6036 13.3963 20.7143 15.9999 20.7143C18.6036 20.7143 20.7142 18.6036 20.7142 16C20.7142 13.3964 18.6036 11.2857 15.9999 11.2857C13.3963 11.2857 11.2856 13.3964 11.2856 16Z" fill="#FAFAFA" fill-opacity="0.8"></path><path d="M20.8236 4.34544C21.0747 3.85351 21.677 3.65823 22.1689 3.90926C24.3974 5.04648 26.2681 6.77756 27.5745 8.91128C28.8808 11.0449 29.5719 13.4982 29.5715 16V25.1428C29.5715 26.0143 29.2253 26.85 28.6091 27.4662C27.9929 28.0824 27.1572 28.4286 26.2858 28.4286H22.7144V30.8571C22.7144 31.4094 22.2666 31.8571 21.7144 31.8571C21.1621 31.8571 20.7144 31.4094 20.7144 30.8571V27.4286C20.7144 26.8763 21.1621 26.4286 21.7144 26.4286H26.2858C26.6268 26.4286 26.9538 26.2931 27.1949 26.052C27.436 25.8109 27.5715 25.4838 27.5715 25.1428V16C27.5719 13.8668 26.9826 11.7749 25.8688 9.95559C24.7549 8.13631 23.1599 6.66033 21.2598 5.69071C20.7679 5.43967 20.5726 4.83738 20.8236 4.34544Z" fill="#FAFAFA" fill-opacity="0.8"></path><path d="M10.7397 5.6909C8.83888 6.65994 7.24296 8.13567 6.12834 9.95499C5.01373 11.7743 4.42383 13.8664 4.42383 16C4.42383 18.1336 5.01373 20.2257 6.12834 22.045C7.24296 23.8643 8.83887 25.34 10.7397 26.3091C11.0747 26.4798 11.2855 26.824 11.2855 27.2V30.8571C11.2855 31.4094 10.8378 31.8571 10.2855 31.8571C9.73326 31.8571 9.28554 31.4094 9.28554 30.8571V27.7967C7.29615 26.6652 5.62207 25.0471 4.42295 23.0898C3.11569 20.956 2.42383 18.5024 2.42383 16C2.42383 13.4976 3.11569 11.0439 4.42295 8.91018C5.73021 6.77641 7.60197 5.04561 9.83136 3.90908C10.3234 3.65824 10.9256 3.85377 11.1765 4.34581C11.4273 4.83784 11.2318 5.44006 10.7397 5.6909Z" fill="#FAFAFA" fill-opacity="0.8"></path></svg> 