<?xml version="1.0" encoding="UTF-8"?> <svg xmlns="http://www.w3.org/2000/svg" width="32" height="32" viewBox="0 0 32 32" fill="none"><path d="M16 4.71429C16.5523 4.71429 17 5.16201 17 5.71429V7.11436C17.8007 7.29999 18.5408 7.70653 19.1314 8.29707C19.9619 9.12758 20.4285 10.254 20.4285 11.4285C20.4285 11.9808 19.9807 12.4285 19.4285 12.4285C18.8762 12.4285 18.4285 11.9808 18.4285 11.4285C18.4285 10.7844 18.1726 10.1667 17.7171 9.71128C17.2148 9.2089 16.6102 9.04812 15.9257 8.99721C15.2946 8.95027 14.6544 9.18802 14.2069 9.63552C13.7104 10.132 13.5713 10.7481 13.5713 11.4285C13.5713 11.8906 13.7798 12.2768 14.2829 12.696C14.9407 13.2442 15.7427 13.6105 16.5031 13.9907C18.2613 14.8695 20.4048 15.9914 20.4283 18.2481C20.5065 19.4409 20.0528 20.6473 19.2071 21.4929C18.6082 22.0919 17.8284 22.5003 17 22.6532V24C17 24.5523 16.5523 25 16 25C15.4477 25 15 24.5523 15 24V22.5999C14.1992 22.4143 13.459 22.0077 12.8684 21.4172C12.0379 20.5866 11.5713 19.4602 11.5713 18.2857C11.5713 17.7334 12.019 17.2857 12.5713 17.2857C13.1236 17.2857 13.5713 17.7334 13.5713 18.2857C13.5713 18.9298 13.8272 19.5475 14.2826 20.0029C14.7381 20.4584 15.3558 20.7143 15.9999 20.7143C16.6804 20.7143 17.2964 20.5752 17.7929 20.0787C18.2894 19.5822 18.4285 18.9662 18.4285 18.2857C18.4285 16.9427 16.5257 16.238 15.5527 15.7515C14.6696 15.3101 13.7657 14.8684 13.0026 14.2325C12.2278 13.5868 11.5844 12.6988 11.5715 11.4662C11.4932 10.2733 11.947 9.06696 12.7927 8.2213C13.3917 7.62229 14.1716 7.21389 15 7.06095V5.71429C15 5.16201 15.4477 4.71429 16 4.71429Z" fill="#FAFAFA" fill-opacity="0.8"></path><path d="M4.57138 0.142822H27.4285C28.2999 0.142822 29.1357 0.488995 29.7519 1.10519C30.3681 1.72138 30.7142 2.55711 30.7142 3.42854V15.8718C30.6911 18.4361 29.9586 20.944 28.5979 23.1176C27.2406 25.2859 25.3108 27.0373 23.0217 28.1786L16.4775 31.7357C16.1848 31.8948 15.832 31.8977 15.5367 31.7434L8.98557 28.3194C6.67079 27.1669 4.72358 25.3911 3.36319 23.1919C2.00112 20.9899 1.28155 18.4512 1.28566 15.862V3.42854C1.28566 2.55711 1.63183 1.72138 2.24803 1.10519C2.86422 0.488995 3.69995 0.142822 4.57138 0.142822ZM3.66224 2.5194C3.42112 2.76052 3.28566 3.08754 3.28566 3.42854V15.8645C3.282 18.0811 3.89798 20.2546 5.06408 22.1398C6.23017 24.0249 7.89996 25.5465 9.88498 26.533L15.9907 29.7239C16.6685 29.3555 17.3426 28.9785 18.0168 28.6014C19.3713 27.8437 20.7266 27.0856 22.115 26.3959C24.0808 25.419 25.7379 23.9171 26.9027 22.0564C28.0667 20.1969 28.6937 18.0518 28.7142 15.8582V3.42854C28.7142 3.08754 28.5788 2.76052 28.3377 2.5194C28.0965 2.27828 27.7695 2.14282 27.4285 2.14282H4.57138C4.23038 2.14282 3.90336 2.27828 3.66224 2.5194Z" fill="#FAFAFA" fill-opacity="0.8"></path></svg> 