<?xml version="1.0" encoding="UTF-8"?> <svg xmlns="http://www.w3.org/2000/svg" width="25" height="24" viewBox="0 0 25 24" fill="none"><g clip-path="url(#clip0_39605_49182)"><path d="M12.6667 24C19.2941 24 24.6667 18.6274 24.6667 12C24.6667 5.37258 19.2941 0 12.6667 0C6.03924 0 0.666656 5.37258 0.666656 12C0.666656 18.6274 6.03924 24 12.6667 24Z" fill="white"></path><path d="M22.6442 18.667C21.9698 19.6742 21.1467 20.5727 20.2067 21.333H5.12662C4.18664 20.5727 3.36349 19.6742 2.68912 18.667H22.6442Z" fill="#B22234"></path><path d="M24.5924 13.333C24.4902 14.258 24.2814 15.1506 23.9811 16H1.3522C1.0519 15.1506 0.843112 14.258 0.740875 13.333H24.5924Z" fill="#B22234"></path><path d="M23.9811 8C24.2814 8.84942 24.4902 9.74199 24.5924 10.667H0.740875C0.843112 9.74199 1.0519 8.84942 1.3522 8H23.9811Z" fill="#B22234"></path><path d="M20.2067 2.66699C21.1467 3.42734 21.9698 4.32578 22.6442 5.33301H2.68912C3.36349 4.32578 4.18664 3.42734 5.12662 2.66699H20.2067Z" fill="#B22234"></path><path d="M12.6667 0C13.048 0 13.4252 0.0179372 13.7975 0.0527344V13.333H0.740875C0.692497 12.8953 0.666656 12.4506 0.666656 12C0.666656 5.37258 6.03924 0 12.6667 0Z" fill="#3C3B6E"></path><path d="M3.04752 11.1582H3.82388L3.19595 11.6143L3.43619 12.3516L2.80826 11.8955L2.18033 12.3516L2.42056 11.6143L1.79263 11.1582H2.569L2.80826 10.4209L3.04752 11.1582Z" fill="white"></path><path d="M7.41568 11.1582H8.19205L7.56412 11.6143L7.80435 12.3516L7.17642 11.8955L6.54849 12.3516L6.78873 11.6143L6.1608 11.1582H6.93619L7.17642 10.4209L7.41568 11.1582Z" fill="white"></path><path d="M11.7838 11.1582H12.5602L11.9323 11.6143L12.1715 12.3516L11.5446 11.8955L10.9167 12.3516L11.1569 11.6143L10.529 11.1582H11.3044L11.5446 10.4209L11.7838 11.1582Z" fill="white"></path><path d="M5.23209 9.28613H6.00748L5.38052 9.74219L5.61978 10.4795L4.99185 10.0234L4.3649 10.4795L4.60416 9.74219L3.9772 9.28613H4.75259L4.99283 8.54785L5.23209 9.28613Z" fill="white"></path><path d="M9.60025 9.28613H10.3756L9.74869 9.74219L9.98795 10.4795L9.36002 10.0234L8.73306 10.4795L8.97232 9.74219L8.34439 9.28613H9.12076L9.36002 8.54785L9.60025 9.28613Z" fill="white"></path><path d="M3.04752 7.41406H3.82388L3.19595 7.87012L3.43619 8.60742L2.80826 8.15234L2.18033 8.60742L2.42056 7.87012L1.79263 7.41406H2.569L2.80826 6.67676L3.04752 7.41406Z" fill="white"></path><path d="M7.41568 7.41406H8.19205L7.56412 7.87012L7.80435 8.60742L7.17642 8.15137L6.54849 8.60742L6.78873 7.87012L6.1608 7.41406H6.93619L7.17642 6.67676L7.41568 7.41406Z" fill="white"></path><path d="M11.7838 7.41406H12.5602L11.9323 7.87012L12.1715 8.60742L11.5446 8.15137L10.9167 8.60742L11.1569 7.87012L10.529 7.41406H11.3044L11.5446 6.67676L11.7838 7.41406Z" fill="white"></path><path d="M5.23209 5.54199H6.00748L5.38052 5.99805L5.61978 6.73633L4.99185 6.28027L4.3649 6.73633L4.60416 5.99805L3.9772 5.54199H4.75259L4.99283 4.80469L5.23209 5.54199Z" fill="white"></path><path d="M9.60025 5.54199H10.3756L9.74869 5.99805L9.98795 6.73633L9.36002 6.28027L8.73306 6.73633L8.97232 5.99805L8.34439 5.54199H9.12076L9.36002 4.80469L9.60025 5.54199Z" fill="white"></path><path d="M7.41568 3.66992H8.19205L7.56412 4.12598L7.80435 4.86426L7.17642 4.4082L6.54849 4.86426L6.78873 4.12598L6.1608 3.66992H6.93619L7.17642 2.93262L7.41568 3.66992Z" fill="white"></path><path d="M11.7838 3.66992H12.5602L11.9323 4.12598L12.1715 4.86426L11.5446 4.4082L10.9167 4.86426L11.1569 4.12598L10.529 3.66992H11.3044L11.5446 2.93262L11.7838 3.66992Z" fill="white"></path><path d="M9.60025 1.79785H10.3756L9.74869 2.25391L9.98795 2.99219L9.36002 2.53613L8.73306 2.99219L8.97232 2.25391L8.34439 1.79785H9.12076L9.36002 1.06055L9.60025 1.79785Z" fill="white"></path></g><defs><clipPath id="clip0_39605_49182"><rect width="24" height="24" fill="white" transform="translate(0.666656)"></rect></clipPath></defs></svg> 