<?xml version="1.0" encoding="UTF-8"?> <svg xmlns="http://www.w3.org/2000/svg" width="25" height="24" viewBox="0 0 25 24" fill="none"><g clip-path="url(#clip0_39605_49178)"><path d="M24.6667 12C24.6667 18.6255 19.2972 23.997 12.6722 24H12.5427C11.961 23.9939 11.3805 23.946 10.8057 23.8565C10.335 23.7838 9.86912 23.6826 9.41066 23.5535C6.89354 22.8432 4.67726 21.3303 3.09891 19.2448C1.52057 17.1593 0.666516 14.6154 0.666657 12C0.666657 5.3735 6.03766 4.78734e-06 12.6667 4.78734e-06H12.6722C14.3047 -0.00145566 15.9203 0.331245 17.4194 0.977626C18.9185 1.62401 20.2695 2.57039 21.3892 3.7585C23.495 5.98573 24.6678 8.93489 24.6667 12Z" fill="white"></path><path d="M5.4594 8.971H1.0524C1.30276 8.01087 1.6723 7.08585 2.1524 6.2175L5.4594 8.971ZM5.3599 15.028L2.1169 17.725C1.65346 16.8727 1.29597 15.967 1.0524 15.028H5.3599ZM9.6384 17.564V23.614C9.5624 23.5945 9.4884 23.574 9.4109 23.5525C7.83852 23.1097 6.37355 22.3494 5.1064 21.3185L9.6384 17.564ZM9.6384 0.385498V6.3405L5.1739 2.6265C6.4877 1.57353 8.00906 0.809865 9.6384 0.385498ZM20.2284 2.6825L15.6954 6.44V0.385998L15.7639 0.403498C17.3964 0.838999 18.9181 1.61575 20.2284 2.6825ZM24.2814 8.971H19.9814L23.2169 6.279C23.6799 7.1297 24.0374 8.03371 24.2814 8.971ZM20.2669 21.289C18.9299 22.3852 17.3711 23.1786 15.6979 23.6145V17.488L20.2669 21.289ZM24.2814 15.028C24.043 15.9444 23.6964 16.8291 23.2489 17.6635L20.0814 15.028H24.2814Z" fill="#012169"></path><path d="M9.6383 8.43103V8.97104H7.8938L2.9938 4.89653C3.29668 4.48453 3.62569 4.09239 3.9788 3.72253L9.6383 8.43103ZM22.3553 4.91853L17.4838 8.96853H15.6953V8.46754L21.3743 3.74303L21.3893 3.75853C21.7166 4.10361 22.0229 4.4681 22.3063 4.85003L22.3553 4.91853ZM9.6383 15.028V15.568L3.9788 20.2775C3.9288 20.2275 3.8788 20.1735 3.8318 20.121C3.53409 19.7976 3.2545 19.4579 2.9943 19.1035L7.89431 15.028H9.6383ZM22.3558 19.081C22.0542 19.4934 21.7265 19.886 21.3748 20.2565L15.6953 15.5315V15.028H17.4838L22.3558 19.081Z" fill="#C8102E"></path><path d="M24.6667 11.8745V12.114C24.6615 12.6735 24.6175 13.232 24.5352 13.7855H14.4522V23.868C13.9022 23.95 13.3472 23.9941 12.7912 24H12.5412C11.9849 23.9943 11.4298 23.95 10.8797 23.8675V13.7855H0.798657C0.716608 13.2348 0.672504 12.6792 0.666656 12.1225V11.886C0.671829 11.3263 0.715768 10.7676 0.798156 10.214H10.8812V0.132C11.4047 0.053722 11.9329 0.00962867 12.4622 0H12.8492C13.3543 0.00722201 13.8585 0.0462996 14.3587 0.117L14.4522 0.131V10.214H24.5347C24.6167 10.7638 24.6608 11.3186 24.6667 11.8745Z" fill="#C8102E"></path></g><defs><clipPath id="clip0_39605_49178"><rect width="24" height="24" fill="white" transform="translate(0.666656)"></rect></clipPath></defs></svg> 