<?xml version="1.0" encoding="UTF-8"?> <svg xmlns="http://www.w3.org/2000/svg" width="232" height="34" viewBox="0 0 232 34" fill="none"><path d="M14.0742 8.61148C14.095 8.62341 15.8573 9.64075 19.8555 13.6388C23.8627 17.646 25.6248 20.1556 25.6377 20.174C25.6282 20.1791 23.593 21.2866 20.3223 22.5519C20.7396 23.8849 21.1054 25.7959 21.1123 25.8322L18.9062 26.6847C18.9035 26.6644 18.6624 24.9215 18.2607 23.3078C14.1945 24.7274 11.3475 25.4438 11.3096 25.4533C11.3096 25.4533 12.5662 21.4314 13.3203 16.6554C14.0691 11.913 14.0742 8.65713 14.0742 8.61148Z" fill="#08382F"></path><path fill-rule="evenodd" clip-rule="evenodd" d="M6.03223 0.257968C6.62062 -0.0781843 7.1996 -0.0607278 7.70215 0.166171C8.1755 0.379983 8.55867 0.76781 8.84766 1.14176C9.14157 1.52218 9.37088 1.93041 9.52441 2.23746C9.55698 2.3026 9.58606 2.36401 9.6123 2.42008C10.6022 2.18041 11.2595 2.16445 11.6777 2.21305C12.2177 2.27586 12.5139 2.70636 12.6152 3.08414L13.3691 5.89762C13.7673 5.86378 14.1702 5.84586 14.5771 5.84586C22.3516 5.84594 28.6543 12.1485 28.6543 19.923C28.6542 27.6974 22.3515 34.0001 14.5771 34.0002C6.8027 34.0001 0.500069 27.6974 0.5 19.923C0.5 14.6857 3.36003 10.1161 7.60352 7.69156L6.78809 4.64566C6.68699 4.26788 6.72801 3.7464 7.16406 3.42203C7.41995 3.2318 7.81399 3.00685 8.41406 2.78336C8.19741 2.59421 7.92228 2.38154 7.60352 2.19937C7.17442 1.9542 6.68632 1.77237 6.16309 1.75602C6.11119 1.93851 6.06934 2.15476 6.03809 2.40348C5.94437 3.14964 5.95164 4.05813 5.93555 5.00797C5.91998 5.92649 5.88245 6.89439 5.66992 7.65348C5.56252 8.03686 5.39984 8.40721 5.14062 8.69742C4.87024 8.99996 4.51209 9.19513 4.06934 9.23941C3.65535 9.2808 3.27613 9.19814 2.95215 8.9982C2.63347 8.80148 2.40013 8.51072 2.23535 8.18375C1.91119 7.54017 1.81712 6.69012 1.88379 5.84C1.95126 4.98009 2.18748 4.06314 2.57715 3.25406C2.96491 2.4491 3.52406 1.71249 4.26367 1.26871C4.67951 1.01929 5.08998 0.871434 5.48633 0.79996C5.62084 0.584541 5.79704 0.392363 6.03223 0.257968ZM24.7441 11.6711C20.7639 6.55489 13.6235 5.45161 8.7959 9.20719C3.96834 12.963 3.28147 20.1554 7.26172 25.2716C11.2421 30.3876 18.3824 31.4902 23.21 27.7345C28.0371 23.9788 28.7239 16.7871 24.7441 11.6711ZM5.08594 1.97184C4.98495 2.01709 4.88244 2.06972 4.78027 2.13102C4.26328 2.4413 3.81728 2.99455 3.48242 3.68961C3.14961 4.38056 2.94502 5.1759 2.88672 5.91812C2.82771 6.67047 2.92283 7.3147 3.13281 7.7316C3.23505 7.93443 3.35558 8.06564 3.48047 8.14273C3.60015 8.21653 3.75481 8.25973 3.96875 8.23844C4.15404 8.2199 4.28308 8.14775 4.39062 8.0275C4.50924 7.89469 4.61713 7.68555 4.70215 7.38199C4.87445 6.7665 4.91481 5.92645 4.93066 4.99137C4.94598 4.08782 4.93749 3.09526 5.04004 2.27848C5.05298 2.17545 5.06862 2.07261 5.08594 1.97184ZM11.4453 3.20133C11.1157 3.18104 10.5301 3.21216 9.59375 3.46305C9.00966 3.61957 8.58647 3.78159 8.28418 3.92594C8.1389 3.99543 8.11068 4.1842 8.22656 4.29605C9.2209 5.255 10.573 5.8458 12.0635 5.84586C12.1913 5.84571 12.2815 5.72273 12.25 5.59879C12.1025 5.0197 11.7668 3.69384 11.6162 3.31363C11.5878 3.24197 11.5223 3.20609 11.4453 3.20133Z" fill="#08382F"></path><path fill-rule="evenodd" clip-rule="evenodd" d="M76.3652 8.90055C78.008 8.90055 79.4973 9.17222 80.832 9.715C82.1666 10.2319 83.3082 10.982 84.2578 11.964C85.2075 12.9204 85.9398 14.0834 86.4531 15.4533C86.9664 16.7972 87.2227 18.2963 87.2227 19.9504C87.2227 21.6044 86.9664 23.1035 86.4531 24.4474C85.9398 25.7915 85.2075 26.9545 84.2578 27.9367C83.3082 28.9188 82.1666 29.682 80.832 30.2248C79.4973 30.7417 78.008 31.0002 76.3652 31.0002C74.7227 31.0001 73.234 30.7416 71.8994 30.2248C70.5647 29.682 69.409 28.9189 68.4336 27.9367C67.484 26.9546 66.7526 25.7913 66.2393 24.4474C65.726 23.1035 65.4688 21.6044 65.4688 19.9504C65.4688 18.2962 65.7259 16.7973 66.2393 15.4533C66.7526 14.0835 67.484 12.9203 68.4336 11.964C69.409 10.9818 70.5647 10.2319 71.8994 9.715C73.234 9.17232 74.7226 8.90055 76.3652 8.90055ZM76.3652 13.3595C75.5182 13.3595 74.7477 13.5142 74.0547 13.8244C73.3875 14.1345 72.8233 14.5743 72.3613 15.1427C71.8993 15.7113 71.5399 16.4094 71.2832 17.2365C71.0522 18.0377 70.9365 18.9424 70.9365 19.9504C70.9365 20.9584 71.0522 21.8762 71.2832 22.7033C71.5399 23.5044 71.8993 24.2026 72.3613 24.797C72.8232 25.3653 73.3877 25.8043 74.0547 26.1144C74.7477 26.3987 75.5182 26.5412 76.3652 26.5412C77.2123 26.5412 77.9694 26.3987 78.6367 26.1144C79.304 25.8043 79.8691 25.3656 80.3311 24.797C80.8187 24.2026 81.1782 23.5045 81.4092 22.7033C81.6659 21.8762 81.7939 20.9584 81.7939 19.9504C81.7939 18.9424 81.6659 18.0377 81.4092 17.2365C81.1782 16.4094 80.8188 15.7114 80.3311 15.1427C79.869 14.5742 79.3041 14.1345 78.6367 13.8244C77.9694 13.5143 77.2121 13.3595 76.3652 13.3595Z" fill="#08382F"></path><path fill-rule="evenodd" clip-rule="evenodd" d="M100.054 8.90055C101.696 8.90059 103.185 9.17228 104.52 9.715C105.854 10.2319 106.997 10.9818 107.946 11.964C108.896 12.9203 109.627 14.0835 110.141 15.4533C110.654 16.7973 110.911 18.2962 110.911 19.9504C110.911 21.6045 110.654 23.1034 110.141 24.4474C109.627 25.7914 108.896 26.9545 107.946 27.9367C106.997 28.9189 105.854 29.682 104.52 30.2248C103.185 30.7416 101.696 31.0001 100.054 31.0002C98.411 31.0002 96.9217 30.7417 95.5869 30.2248C94.2522 29.682 93.0975 28.9189 92.1221 27.9367C91.1724 26.9545 90.4401 25.7914 89.9268 24.4474C89.4135 23.1035 89.1572 21.6044 89.1572 19.9504C89.1572 18.2963 89.4135 16.7972 89.9268 15.4533C90.4401 14.0834 91.1723 12.9204 92.1221 11.964C93.0975 10.9819 94.2522 10.2319 95.5869 9.715C96.9217 9.17222 98.4109 8.90055 100.054 8.90055ZM100.054 13.3595C99.2067 13.3595 98.4362 13.5143 97.7432 13.8244C97.0758 14.1345 96.5109 14.5741 96.0488 15.1427C95.5868 15.7114 95.2274 16.4094 94.9707 17.2365C94.7397 18.0377 94.624 18.9424 94.624 19.9504C94.624 20.9584 94.7397 21.8762 94.9707 22.7033C95.2274 23.5045 95.5868 24.2026 96.0488 24.797C96.5108 25.3656 97.0759 25.8043 97.7432 26.1144C98.4362 26.3987 99.2067 26.5412 100.054 26.5412C100.901 26.5411 101.658 26.3987 102.325 26.1144C102.992 25.8043 103.557 25.3653 104.019 24.797C104.506 24.2026 104.866 23.5044 105.097 22.7033C105.353 21.8762 105.482 20.9584 105.482 19.9504C105.482 18.9424 105.353 18.0377 105.097 17.2365C104.866 16.4094 104.506 15.7113 104.019 15.1427C103.557 14.5743 102.992 14.1345 102.325 13.8244C101.658 13.5143 100.901 13.3596 100.054 13.3595Z" fill="#08382F"></path><path fill-rule="evenodd" clip-rule="evenodd" d="M134.021 30.4963H129.055L128.939 27.007C128.323 28.3251 127.386 29.3194 126.128 29.9914C124.87 30.6633 123.472 31.0002 121.932 31.0002C120.571 31.0002 119.327 30.7416 118.197 30.2248C117.094 29.7078 116.143 28.9711 115.348 28.0148C114.552 27.0327 113.936 25.8563 113.5 24.4865C113.064 23.1166 112.845 21.6045 112.845 19.9504C112.845 18.2962 113.064 16.7973 113.5 15.4533C113.936 14.0835 114.552 12.9203 115.348 11.964C116.143 10.9818 117.094 10.2319 118.197 9.715C119.327 9.17233 120.571 8.90055 121.932 8.90055C123.472 8.90055 124.832 9.23732 126.013 9.90934C127.219 10.5813 128.156 11.5371 128.823 12.7775V2.00016H134.021V30.4963ZM123.434 13.3595C122.612 13.3595 121.88 13.502 121.238 13.7863C120.622 14.0706 120.083 14.4971 119.621 15.0656C119.185 15.6342 118.851 16.3324 118.62 17.1593C118.415 17.9604 118.313 18.8777 118.312 19.9113C118.312 20.9708 118.415 21.9144 118.62 22.7414C118.851 23.5683 119.185 24.2666 119.621 24.8351C120.083 25.3779 120.636 25.8043 121.277 26.1144C121.919 26.3987 122.638 26.5412 123.434 26.5412C124.28 26.5411 125.024 26.3987 125.666 26.1144C126.333 25.8043 126.886 25.3656 127.322 24.797C127.784 24.2285 128.13 23.5303 128.361 22.7033C128.618 21.8762 128.746 20.9452 128.746 19.9113C128.746 18.8777 128.618 17.9604 128.361 17.1593C128.13 16.3581 127.784 15.6723 127.322 15.1037C126.886 14.5351 126.333 14.1087 125.666 13.8244C125.024 13.5144 124.28 13.3596 123.434 13.3595Z" fill="#08382F"></path><path fill-rule="evenodd" clip-rule="evenodd" d="M181.064 8.90055C184.144 8.90062 186.518 9.66381 188.187 11.1886C189.855 12.6877 190.689 14.8584 190.689 17.7013V30.4963H185.723L185.607 27.3947C185.299 27.9115 184.888 28.389 184.375 28.8283C183.862 29.2676 183.272 29.6554 182.604 29.9914C181.937 30.3015 181.192 30.5477 180.371 30.7287C179.575 30.9096 178.728 31.0001 177.83 31.0002C176.88 31.0002 175.968 30.8832 175.096 30.6505C174.249 30.4179 173.505 30.0688 172.863 29.6037C172.222 29.1126 171.708 28.4927 171.323 27.7433C170.964 26.9938 170.784 26.1146 170.784 25.1066C170.784 23.3491 171.387 21.9661 172.594 20.9582C173.8 19.9503 175.61 19.2266 178.022 18.7873L185.415 17.4308V17.2755C185.415 15.854 185.03 14.7937 184.26 14.0959C183.49 13.3981 182.411 13.049 181.025 13.049C179.614 13.049 178.535 13.398 177.791 14.0959C177.072 14.7937 176.636 15.7766 176.482 17.0431H171.054C171.182 15.7249 171.502 14.5609 172.016 13.5529C172.555 12.5192 173.248 11.6662 174.095 10.9943C174.967 10.2965 175.994 9.77953 177.175 9.44351C178.356 9.08166 179.653 8.90055 181.064 8.90055ZM179.523 21.6564C178.343 21.889 177.509 22.225 177.021 22.6642C176.534 23.0778 176.29 23.6466 176.29 24.3703C176.29 25.2232 176.598 25.8694 177.214 26.3088C177.83 26.7223 178.664 26.9289 179.717 26.9289C180.589 26.9288 181.372 26.7996 182.065 26.5412C182.784 26.2827 183.387 25.9213 183.875 25.4562C184.363 24.991 184.735 24.4221 184.991 23.7502C185.274 23.0782 185.415 22.3414 185.415 21.5402V20.5324L179.523 21.6564Z" fill="#08382F"></path><path d="M216.552 9.40543H223.521V13.8634H216.552V22.7033C216.552 23.4011 216.629 23.9954 216.783 24.4865C216.937 24.9517 217.181 25.3262 217.515 25.6105C217.848 25.8689 218.259 26.0633 218.746 26.1925C219.234 26.2959 219.811 26.3478 220.479 26.3478C220.915 26.3478 221.39 26.3346 221.903 26.3088C222.417 26.2571 222.956 26.1797 223.521 26.0763V30.4963C222.622 30.6772 221.788 30.8064 221.018 30.8839C220.248 30.9614 219.529 31.0001 218.862 31.0002C217.553 31.0002 216.411 30.8444 215.436 30.5343C214.486 30.2242 213.69 29.7459 213.048 29.0998C212.406 28.4278 211.931 27.5749 211.623 26.5412C211.315 25.5074 211.161 24.2923 211.161 22.8966V13.8634H208.004V9.40543H211.161V4.21012H216.552V9.40543Z" fill="#08382F"></path><path d="M42.126 25.3009L46.207 9.40543H51.9824L56.1016 25.3009L60.0293 9.40543H65.6504L59.5674 30.4963H53.2139L49.0947 15.7248L45.0137 30.4963H38.6992L32.5 9.40543H38.1602L42.126 25.3009Z" fill="#08382F"></path><path d="M161.446 8.90055C162.524 8.90059 163.499 9.08172 164.372 9.44351C165.27 9.80536 166.028 10.3355 166.644 11.0334C167.285 11.7053 167.773 12.5451 168.106 13.5529C168.44 14.5351 168.607 15.6472 168.607 16.8879V30.4963H163.217V18.6711C163.217 17.7925 163.14 17.03 162.986 16.3839C162.858 15.7379 162.652 15.2076 162.37 14.7941C162.088 14.3547 161.715 14.0311 161.253 13.8244C160.817 13.6178 160.291 13.5148 159.675 13.5148C159.033 13.5148 158.456 13.6309 157.942 13.8634C157.429 14.096 156.98 14.432 156.595 14.8712C156.235 15.2848 155.952 15.8149 155.747 16.4611C155.567 17.1072 155.478 17.844 155.478 18.6711V30.4963H150.088V18.6711C150.088 17.7924 150.01 17.03 149.856 16.3839C149.728 15.7378 149.523 15.2076 149.24 14.7941C148.958 14.3548 148.586 14.0311 148.124 13.8244C147.688 13.6177 147.162 13.5149 146.546 13.5148C145.904 13.5148 145.326 13.6308 144.812 13.8634C144.299 14.0961 143.85 14.4319 143.465 14.8712C143.106 15.2848 142.824 15.815 142.618 16.4611C142.438 17.1073 142.349 17.844 142.349 18.6711V30.4963H136.958V9.40543H141.925L142.041 13.1652C142.298 12.4417 142.631 11.8084 143.042 11.2658C143.478 10.7231 143.966 10.2834 144.505 9.94742C145.044 9.61147 145.635 9.35294 146.276 9.17203C146.944 8.99119 147.649 8.90055 148.394 8.90055C149.189 8.90055 149.934 9.00432 150.627 9.21109C151.32 9.41784 151.936 9.7151 152.475 10.1027C153.039 10.4645 153.527 10.9298 153.938 11.4982C154.348 12.0667 154.682 12.7132 154.938 13.4367C155.195 12.6614 155.53 11.9896 155.94 11.4211C156.351 10.8526 156.825 10.3873 157.364 10.0255C157.929 9.63788 158.558 9.35296 159.251 9.17203C159.944 8.9911 160.676 8.90055 161.446 8.90055Z" fill="#08382F"></path><path d="M198.63 13.8244C199.066 12.2738 199.72 11.1491 200.593 10.4513C201.491 9.75352 202.634 9.40548 204.02 9.40543H206.291V14.9103H203.827C202.98 14.9103 202.235 15.0141 201.594 15.2209C200.978 15.4276 200.464 15.7371 200.054 16.1505C199.669 16.5382 199.374 17.0429 199.169 17.6632C198.989 18.2576 198.899 18.9682 198.899 19.7951V30.4963H193.547V9.40543H198.476L198.63 13.8244Z" fill="#08382F"></path><path d="M231.5 30.4963H225.956V25.0295H231.5V30.4963Z" fill="#08382F"></path></svg> 