<?xml version="1.0" encoding="UTF-8"?> <svg xmlns="http://www.w3.org/2000/svg" width="101" height="100" viewBox="0 0 101 100" fill="none"><path d="M52.3309 100H46.3371V87.8788H48.8345V77.3102C46.8379 77.5147 44.8903 78.3317 43.2885 79.7654L41.3724 81.4798C37.676 84.7886 31.9781 84.2261 28.9848 80.2567C27.5667 78.3763 25.3618 77.2727 23.0231 77.2727H19.3647V76.2626H23.0231C25.6735 76.2626 28.1728 77.513 29.7798 79.6441C32.4212 83.1467 37.4482 83.6436 40.71 80.7242L42.626 79.0088C44.417 77.4058 46.6004 76.5007 48.8345 76.2932V60.4019C47.2495 60.6272 45.7254 61.39 44.5557 62.6933L43.6465 63.7064C40.5468 67.1604 35.0591 66.7392 32.5114 62.8512C31.3863 61.134 29.4845 60.101 27.4473 60.101H23.3606V59.0909H27.4473C29.8194 59.0909 32.0334 60.2934 33.3436 62.2928C35.5314 65.632 40.2441 65.994 42.906 63.0277L43.8162 62.0147C45.1843 60.4904 46.9773 59.6149 48.8345 59.3839V42.9135C47.6632 43.1232 46.5444 43.7032 45.6659 44.6565L44.3694 46.0642C41.9474 48.6922 37.7022 48.2053 35.9239 45.0955C35.1576 43.7551 33.7421 42.9293 32.2109 42.9293H29.3545V41.9192H32.2109C34.0987 41.9192 35.8434 42.937 36.7883 44.5894C38.2305 47.1119 41.6742 47.5072 43.6387 45.3756L44.9352 43.968C46.0116 42.8001 47.3944 42.1069 48.8345 41.8886V27.3437C48.0187 27.5724 47.2678 28.0858 46.7458 28.8865C44.8232 31.8359 40.5008 31.6969 38.754 28.6419C38.0916 27.4834 36.867 26.7677 35.5444 26.7677H34.3494V25.7576H35.5444C37.2246 25.7576 38.7789 26.6668 39.6194 28.1368C40.9964 30.5444 44.4 30.6494 45.9117 28.3302C46.6319 27.2254 47.695 26.5505 48.8345 26.3031V13.8169C47.3888 13.605 45.9966 12.9316 44.8923 11.7947C43.5261 10.3882 41.6578 9.59605 39.7081 9.59596H39.3443V8.58586H39.7081C41.9259 8.58595 44.0504 9.48754 45.6044 11.0874C46.5127 12.0225 47.649 12.5901 48.8345 12.794V0H49.8335V12.8808C51.3673 12.8808 52.901 12.2832 54.0626 11.0874C55.6166 9.48754 57.7411 8.58595 59.9589 8.58586H60.3227V9.59596H59.9589C58.0091 9.59605 56.1409 10.3882 54.7747 11.7947C53.4174 13.192 51.6255 13.8909 49.8335 13.8909V26.1946C51.3304 26.1946 52.8272 26.9066 53.7553 28.3302C55.267 30.6494 58.6706 30.5444 60.0476 28.1368C60.8881 26.6668 62.4424 25.7576 64.1226 25.7576H65.3176V26.7677H64.1226C62.8 26.7677 61.5753 27.4834 60.913 28.6419C59.1662 31.6969 54.8438 31.8359 52.9211 28.8865C52.1905 27.7657 51.012 27.2056 49.8335 27.2056V41.8136C51.6208 41.8136 53.4081 42.5316 54.7318 43.968L56.0283 45.3756C57.9928 47.5072 61.4365 47.1119 62.8787 44.5894C63.8236 42.937 65.5683 41.9192 67.456 41.9192H70.3125V42.9293H67.456C65.9249 42.9293 64.5094 43.7551 63.7431 45.0955C61.9648 48.2053 57.7196 48.6922 55.2976 46.0642L54.0011 44.6565C52.8749 43.4345 51.3542 42.8237 49.8335 42.8237V59.3198C52.0359 59.3198 54.2384 60.2181 55.8508 62.0147L56.761 63.0277C59.4229 65.994 64.1356 65.632 66.3234 62.2928C67.6336 60.2934 69.8476 59.0909 72.2197 59.0909H76.3063V60.101H72.2197C70.1825 60.101 68.2807 61.134 67.1556 62.8512C64.6079 66.7392 59.1202 67.1604 56.0205 63.7064L55.1113 62.6933C53.6971 61.1176 51.7653 60.3299 49.8335 60.3299V76.2468C52.4086 76.2468 54.9836 77.1675 57.0409 79.0088L58.957 80.7242C62.2188 83.6436 67.2458 83.1467 69.8871 79.6441C71.4942 77.513 73.9935 76.2626 76.6439 76.2626H80.3022V77.2727H76.6439C74.3052 77.2727 72.1003 78.3763 70.6822 80.2567C67.6888 84.2261 61.991 84.7886 58.2945 81.4798L56.3785 79.7654C54.5102 78.0932 52.1719 77.2569 49.8335 77.2569V87.8788H52.3309V100Z" fill="black"></path></svg> 