<?xml version="1.0" encoding="UTF-8"?> <svg xmlns="http://www.w3.org/2000/svg" width="272" height="42" viewBox="0 0 272 42" fill="none"><path d="M15.9835 11.1227C16.0079 11.1367 18.0831 12.3346 22.7909 17.0423C27.5093 21.7607 29.5842 24.7157 29.5994 24.7374C29.5882 24.7434 27.1918 26.0475 23.3405 27.5374C23.8319 29.1069 24.2626 31.3571 24.2708 31.3999L21.6732 32.4037C21.6699 32.3798 21.386 30.3276 20.9131 28.4274C16.1252 30.099 12.7729 30.9425 12.7282 30.9537C12.7282 30.9537 14.2078 26.218 15.0958 20.5943C15.9775 15.0101 15.9835 11.1764 15.9835 11.1227Z" fill="#A3E4D7"></path><path fill-rule="evenodd" clip-rule="evenodd" d="M6.51414 1.2865C7.20696 0.890681 7.88871 0.911236 8.48045 1.17841C9.03782 1.43017 9.489 1.88683 9.82927 2.32715C10.1754 2.77509 10.4454 3.25578 10.6261 3.61733C10.6645 3.69403 10.6987 3.76634 10.7296 3.83236C11.8952 3.55016 12.6692 3.53135 13.1617 3.58858C13.7975 3.66254 14.1462 4.16946 14.2656 4.61428L15.1533 7.92712C15.6221 7.88728 16.0966 7.86618 16.5757 7.86618C25.73 7.86627 33.1514 15.2875 33.1514 24.4419C33.1513 33.5961 25.73 41.0175 16.5757 41.0176C7.42136 41.0175 8.18158e-05 33.5962 0 24.4419C0 18.275 3.36766 12.8944 8.36431 10.0395L7.40415 6.45296C7.28511 6.00812 7.33341 5.39409 7.84686 5.01215C8.14817 4.78816 8.61214 4.52328 9.31872 4.26012C9.06362 4.03739 8.73965 3.78698 8.36431 3.57248C7.85906 3.28379 7.28433 3.06968 6.66822 3.05043C6.60711 3.26532 6.55783 3.51995 6.52104 3.81281C6.41069 4.6914 6.41925 5.76114 6.4003 6.87957C6.38196 7.96112 6.33778 9.10081 6.08753 9.99463C5.96106 10.4461 5.76951 10.8821 5.46429 11.2239C5.14591 11.5801 4.72419 11.8099 4.20285 11.8621C3.71539 11.9108 3.26886 11.8135 2.88738 11.578C2.51214 11.3464 2.23738 11.004 2.04336 10.619C1.66166 9.86121 1.55089 8.86029 1.6294 7.85928C1.70884 6.84674 1.98699 5.76704 2.44582 4.81436C2.9024 3.86653 3.5608 2.99919 4.43168 2.47664C4.92133 2.18295 5.40465 2.00885 5.87135 1.92469C6.02973 1.67103 6.23721 1.44475 6.51414 1.2865ZM28.5472 14.7253C23.8605 8.70106 15.4528 7.40196 9.76833 11.8241C4.08393 16.2465 3.27515 24.7155 7.96185 30.7398C12.6487 36.7638 21.0564 38.0621 26.7407 33.6399C32.4247 29.2175 33.2334 20.7494 28.5472 14.7253ZM5.39989 3.30456C5.28099 3.35784 5.16028 3.41982 5.03998 3.49199C4.43122 3.85735 3.90606 4.50879 3.51177 5.32722C3.11989 6.1408 2.87899 7.07731 2.81034 7.95127C2.74086 8.83714 2.85286 9.59573 3.10011 10.0866C3.22049 10.3255 3.36241 10.4799 3.50947 10.5707C3.65039 10.6576 3.8325 10.7085 4.08442 10.6834C4.30259 10.6616 4.45454 10.5766 4.58117 10.435C4.72083 10.2786 4.84787 10.0324 4.94798 9.67496C5.15086 8.95022 5.19839 7.96108 5.21706 6.86002C5.23509 5.79611 5.2251 4.62738 5.34585 3.66562C5.36109 3.54432 5.3795 3.42322 5.39989 3.30456ZM12.888 4.75227C12.4998 4.72838 11.8103 4.76503 10.7078 5.06044C10.02 5.24474 9.52173 5.43552 9.16579 5.60549C8.99472 5.68731 8.96149 5.90959 9.09794 6.0413C10.2688 7.17045 11.8608 7.86611 13.6159 7.86618C13.7664 7.866 13.8726 7.72119 13.8355 7.57526C13.6618 6.89339 13.2666 5.33219 13.0892 4.88451C13.0557 4.80013 12.9786 4.75788 12.888 4.75227Z" fill="#A3E4D7"></path><path fill-rule="evenodd" clip-rule="evenodd" d="M89.3305 11.463C91.2648 11.463 93.0184 11.7829 94.5901 12.422C96.1615 13.0307 97.5057 13.9139 98.6239 15.0702C99.7422 16.1963 100.604 17.5658 101.209 19.1788C101.813 20.7613 102.115 22.5264 102.115 24.4741C102.115 26.4217 101.813 28.1868 101.209 29.7693C100.604 31.3519 99.7422 32.7214 98.6239 33.8779C97.5057 35.0343 96.1616 35.933 94.5901 36.5721C93.0184 37.1808 91.2648 37.4851 89.3305 37.4851C87.3964 37.4851 85.6435 37.1806 84.072 36.5721C82.5004 35.933 81.1396 35.0344 79.9911 33.8779C78.8729 32.7215 78.0117 31.3517 77.4073 29.7693C76.8029 28.1868 76.5 26.4217 76.5 24.4741C76.5 22.5264 76.8028 20.7613 77.4073 19.1788C78.0117 17.5659 78.8729 16.1963 79.9911 15.0702C81.1396 13.9137 82.5004 13.0307 84.072 12.422C85.6436 11.7831 87.3964 11.463 89.3305 11.463ZM89.3305 16.7134C88.3331 16.7135 87.4259 16.8956 86.6098 17.2608C85.8243 17.6259 85.1599 18.1438 84.6159 18.8131C84.0719 19.4827 83.6487 20.3047 83.3465 21.2785C83.0744 22.222 82.9382 23.2872 82.9382 24.4741C82.9382 25.661 83.0744 26.7417 83.3465 27.7156C83.6487 28.659 84.072 29.4811 84.6159 30.181C85.1598 30.8501 85.8245 31.3671 86.6098 31.7322C87.4259 32.0669 88.3331 32.2347 89.3305 32.2347C90.3279 32.2347 91.2193 32.0669 92.0051 31.7322C92.7909 31.367 93.4562 30.8504 94.0002 30.181C94.5744 29.481 94.9977 28.659 95.2697 27.7156C95.5719 26.7417 95.7227 25.661 95.7227 24.4741C95.7227 23.2872 95.5719 22.222 95.2697 21.2785C94.9977 20.3046 94.5745 19.4827 94.0002 18.8131C93.4562 18.1437 92.7909 17.626 92.0051 17.2608C91.2194 16.8957 90.3277 16.7134 89.3305 16.7134Z" fill="#A3E4D7"></path><path fill-rule="evenodd" clip-rule="evenodd" d="M117.223 11.463C119.158 11.4631 120.91 11.783 122.482 12.422C124.054 13.0307 125.399 13.9137 126.517 15.0702C127.635 16.1963 128.496 17.5659 129.101 19.1788C129.705 20.7613 130.008 22.5263 130.008 24.4741C130.008 26.4218 129.705 28.1868 129.101 29.7693C128.496 31.3518 127.635 32.7214 126.517 33.8779C125.399 35.0344 124.054 35.933 122.482 36.5721C120.91 37.1807 119.157 37.485 117.223 37.4851C115.289 37.4851 113.535 37.1808 111.964 36.5721C110.392 35.933 109.033 35.0344 107.884 33.8779C106.766 32.7214 105.904 31.3519 105.299 29.7693C104.695 28.1869 104.393 26.4217 104.393 24.4741C104.393 22.5265 104.695 20.7613 105.299 19.1788C105.904 17.5658 106.766 16.1963 107.884 15.0702C109.032 13.9138 110.392 13.0307 111.964 12.422C113.535 11.7829 115.289 11.463 117.223 11.463ZM117.223 16.7134C116.226 16.7134 115.319 16.8956 114.503 17.2608C113.717 17.626 113.052 18.1436 112.508 18.8131C111.964 19.4827 111.54 20.3046 111.238 21.2785C110.966 22.2219 110.83 23.2872 110.83 24.4741C110.83 25.661 110.966 26.7417 111.238 27.7156C111.54 28.659 111.964 29.481 112.508 30.181C113.052 30.8504 113.717 31.367 114.503 31.7322C115.319 32.067 116.226 32.2347 117.223 32.2347C118.221 32.2346 119.112 32.0669 119.898 31.7322C120.683 31.3671 121.348 30.8501 121.892 30.181C122.466 29.4811 122.889 28.6589 123.161 27.7156C123.464 26.7417 123.616 25.661 123.616 24.4741C123.616 23.2872 123.464 22.222 123.161 21.2785C122.889 20.3047 122.466 19.4827 121.892 18.8131C121.348 18.1438 120.684 17.6259 119.898 17.2608C119.112 16.8956 118.221 16.7135 117.223 16.7134Z" fill="#A3E4D7"></path><path fill-rule="evenodd" clip-rule="evenodd" d="M157.22 36.8917H151.372L151.236 32.7832C150.511 34.3352 149.406 35.506 147.926 36.2973C146.445 37.0885 144.798 37.4851 142.984 37.4851C141.383 37.4851 139.917 37.1806 138.587 36.5721C137.288 35.9634 136.169 35.0959 135.232 33.9699C134.295 32.8134 133.57 31.4283 133.056 29.8153C132.542 28.2023 132.285 26.4219 132.285 24.4741C132.285 22.5263 132.542 20.7614 133.056 19.1788C133.57 17.5659 134.295 16.1963 135.232 15.0702C136.169 13.9137 137.288 13.0307 138.587 12.422C139.917 11.7831 141.383 11.463 142.984 11.463C144.798 11.463 146.4 11.8596 147.79 12.6509C149.21 13.4421 150.313 14.5675 151.099 16.0281V3.3379H157.22V36.8917ZM144.753 16.7134C143.786 16.7134 142.924 16.8812 142.168 17.2159C141.443 17.5507 140.808 18.0529 140.264 18.7223C139.75 19.3918 139.357 20.214 139.085 21.1877C138.843 22.1309 138.723 23.2111 138.723 24.4281C138.723 25.6756 138.843 26.7867 139.085 27.7605C139.357 28.7341 139.75 29.5564 140.264 30.2258C140.808 30.8649 141.458 31.367 142.214 31.7322C142.97 32.0669 143.816 32.2347 144.753 32.2347C145.75 32.2346 146.626 32.0669 147.382 31.7322C148.167 31.367 148.818 30.8505 149.332 30.181C149.876 29.5115 150.283 28.6894 150.555 27.7156C150.858 26.7417 151.008 25.6454 151.008 24.4281C151.008 23.211 150.857 22.131 150.555 21.1877C150.283 20.2442 149.876 19.4367 149.332 18.7672C148.818 18.0977 148.167 17.5955 147.382 17.2608C146.626 16.8958 145.75 16.7135 144.753 16.7134Z" fill="#A3E4D7"></path><path fill-rule="evenodd" clip-rule="evenodd" d="M212.613 11.463C216.239 11.4631 219.034 12.3618 220.999 14.1572C222.963 15.9223 223.946 18.4783 223.946 21.8259V36.8917H218.098L217.962 33.2397C217.599 33.8482 217.115 34.4105 216.511 34.9277C215.906 35.445 215.212 35.9017 214.426 36.2973C213.64 36.6625 212.763 36.9524 211.796 37.1654C210.859 37.3784 209.862 37.4851 208.804 37.4851C207.686 37.4851 206.612 37.3473 205.585 37.0734C204.587 36.7995 203.711 36.3884 202.956 35.8407C202.2 35.2626 201.596 34.5326 201.143 33.6502C200.719 32.7676 200.508 31.7324 200.508 30.5455C200.508 28.4761 201.218 26.8476 202.639 25.6608C204.059 24.474 206.19 23.6219 209.031 23.1045L217.735 21.5073V21.3245C217.735 19.6506 217.282 18.4022 216.375 17.5805C215.468 16.7588 214.199 16.3478 212.567 16.3478C210.904 16.3478 209.635 16.7588 208.758 17.5805C207.912 18.4022 207.399 19.5596 207.217 21.0508H200.825C200.976 19.4987 201.353 18.1281 201.958 16.9411C202.592 15.7239 203.409 14.7196 204.406 13.9284C205.433 13.1068 206.643 12.498 208.033 12.1024C209.423 11.6763 210.95 11.463 212.613 11.463ZM210.798 26.4829C209.408 26.7568 208.426 27.1524 207.852 27.6696C207.278 28.1566 206.991 28.8263 206.991 29.6785C206.991 30.6828 207.353 31.4436 208.079 31.961C208.804 32.4479 209.787 32.6912 211.026 32.6912C212.053 32.6911 212.975 32.539 213.791 32.2347C214.637 31.9304 215.348 31.5048 215.922 30.9572C216.496 30.4094 216.934 29.7395 217.236 28.9483C217.569 28.1571 217.735 27.2895 217.735 26.3461V25.1594L210.798 26.4829Z" fill="#A3E4D7"></path><path d="M254.399 12.0575H262.604V17.3068H254.399V27.7156C254.399 28.5372 254.49 29.2371 254.671 29.8153C254.852 30.3631 255.14 30.8041 255.532 31.1388C255.925 31.4431 256.408 31.672 256.982 31.8242C257.557 31.9459 258.237 32.007 259.022 32.007C259.536 32.007 260.096 31.9914 260.7 31.961C261.304 31.9001 261.939 31.8091 262.604 31.6873V36.8917C261.546 37.1048 260.564 37.257 259.657 37.3483C258.751 37.4395 257.905 37.4851 257.119 37.4851C255.578 37.4851 254.233 37.3017 253.084 36.9366C251.966 36.5714 251.028 36.0083 250.273 35.2474C249.517 34.4562 248.958 33.4519 248.595 32.2347C248.232 31.0174 248.051 29.5866 248.051 27.9433V17.3068H244.334V12.0575H248.051V5.94011H254.399V12.0575Z" fill="#A3E4D7"></path><path d="M49.0141 30.7743L53.8195 12.0575H60.62L65.4702 30.7743L70.0951 12.0575H76.7139L69.5512 36.8917H62.07L57.2198 19.4985L52.4144 36.8917H44.9792L37.6797 12.0575H44.3444L49.0141 30.7743Z" fill="#A3E4D7"></path><path d="M189.513 11.463C190.782 11.4631 191.93 11.6764 192.958 12.1024C194.015 12.5285 194.907 13.1527 195.632 13.9744C196.388 14.7656 196.962 15.7545 197.355 16.9411C197.748 18.0976 197.945 19.4072 197.945 20.868V36.8917H191.597V22.9677C191.597 21.9332 191.507 21.0354 191.326 20.2747C191.175 19.5139 190.933 18.8896 190.6 18.4026C190.268 17.8853 189.829 17.5043 189.285 17.2608C188.771 17.0175 188.152 16.8963 187.427 16.8963C186.671 16.8963 185.991 17.033 185.387 17.3068C184.782 17.5806 184.253 17.9762 183.8 18.4935C183.377 18.9804 183.044 19.6046 182.802 20.3655C182.59 21.1263 182.484 21.9939 182.484 22.9677V36.8917H176.138V22.9677C176.138 21.9331 176.047 21.0354 175.866 20.2747C175.714 19.5138 175.472 18.8896 175.14 18.4026C174.808 17.8853 174.37 17.5042 173.826 17.2608C173.312 17.0174 172.693 16.8963 171.967 16.8963C171.212 16.8963 170.531 17.0329 169.926 17.3068C169.322 17.5807 168.793 17.9762 168.34 18.4935C167.916 18.9804 167.584 19.6047 167.343 20.3655C167.131 21.1264 167.025 21.9938 167.025 22.9677V36.8917H160.678V12.0575H166.526L166.663 16.4846C166.965 15.6327 167.358 14.887 167.842 14.2481C168.355 13.6091 168.93 13.0913 169.564 12.6957C170.199 12.3001 170.895 11.9957 171.65 11.7827C172.436 11.5698 173.267 11.463 174.143 11.463C175.08 11.463 175.957 11.5852 176.773 11.8287C177.589 12.0721 178.314 12.4222 178.948 12.8786C179.613 13.3045 180.187 13.8524 180.671 14.5218C181.154 15.1912 181.547 15.9524 181.85 16.8043C182.152 15.8913 182.546 15.1004 183.029 14.4309C183.513 13.7616 184.071 13.2137 184.706 12.7877C185.371 12.3312 186.112 11.9957 186.928 11.7827C187.744 11.5697 188.606 11.463 189.513 11.463Z" fill="#A3E4D7"></path><path d="M233.296 17.2608C233.81 15.435 234.58 14.1107 235.607 13.2891C236.665 12.4674 238.01 12.0576 239.642 12.0575H242.317V18.5395H239.416C238.418 18.5395 237.541 18.6617 236.786 18.9051C236.061 19.1486 235.456 19.513 234.972 19.9998C234.519 20.4563 234.172 21.0506 233.931 21.781C233.719 22.4809 233.613 23.3175 233.613 24.2912V36.8917H227.311V12.0575H233.114L233.296 17.2608Z" fill="#A3E4D7"></path><path d="M272 36.8917H265.472V30.4547H272V36.8917Z" fill="#A3E4D7"></path></svg> 